<svg width="1442" height="951" viewBox="0 0 1442 651" fill="none" xmlns="http://www.w3.org/2000/svg">
<path d="M10.1282 537.343L49.9024 549.97C89.6766 562.459 169.225 587.713 248.773 588.536C328.322 589.497 407.87 566.165 487.419 550.793C566.967 535.559 646.516 528.147 726.064 532.265C805.613 536.382 882.418 560.497 948.251 588.536C1014.08 616.575 1143.85 651 1216.01 651C1314.42 651 1362.45 599.981 1402.23 575.963L1442 537.343V0.000683734L1355.37 70.5004C1355.37 70.5004 1366.5 61.4439 1282.37 104C1198.24 146.557 1151.37 135.001 1057.87 135.001C964.372 135.001 841.872 86.0005 750.872 39.5005C672.286 -0.656101 644.488 0.000406439 546.372 0.000683734C461.179 0.000924503 401 35.0004 321 70.5004C248.773 124 190.872 113 134 70.5004L0 0.000683734L10.1282 537.343Z" fill="#E54B4F"/>
</svg>
