<svg width="1922" height="986" viewBox="0 0 1922 986" fill="none" xmlns="http://www.w3.org/2000/svg">
<path d="M421.93 76.8697C326.294 98.2489 101.462 37.9557 1 5.13679V890.553C97.4139 917.943 151.986 932.336 262.515 933.5C515.921 915.863 534.907 879.012 794.873 855.382C1119.83 825.845 1345.45 991.815 1550.86 984.783C1715.19 979.156 1860.11 936.492 1912.02 915.863C1912.02 576.194 1932.22 -56.0378 1912.02 5.13663C1831.33 249.431 1629.53 206.036 1449 172.523C1388.38 161.271 1111.41 65.6174 959.036 32.5641C837.135 6.12138 790.945 3.26142 783.087 5.13679C710.687 -2.5991 541.474 50.1456 421.93 76.8697Z" fill="#E54B4F" stroke="black"/>
</svg>
